<?xml version="1.0" encoding="UTF-8" standalone="no"?>
<!-- Created with Inkscape (http://www.inkscape.org/) -->

<svg
   width="32"
   height="32"
   viewBox="0 0 8.4666666 8.4666666"
   version="1.1"
   id="svg5"
   xmlns="http://www.w3.org/2000/svg"
   xmlns:svg="http://www.w3.org/2000/svg">
  <defs
     id="defs2" />
  <g
     id="layer1">
    <path
       id="path113"
       style="fill:#000000;fill-opacity:1;stroke:none;stroke-width:0.665;stroke-dasharray:none"
       d="M 4.2333333 0.43614909 A 1.3785359 1.3785359 0 0 0 2.8546061 1.8148763 A 1.3785359 1.3785359 0 0 0 4.2333333 3.1936035 A 1.3785359 1.3785359 0 0 0 5.6120605 1.8148763 A 1.3785359 1.3785359 0 0 0 4.2333333 0.43614909 z M 4.2333333 1.3115479 A 0.52600306 0.51617122 0 0 1 4.7593994 1.8277954 A 0.52600306 0.51617122 0 0 1 4.2333333 2.344043 A 0.52600306 0.51617122 0 0 1 3.7072673 1.8277954 A 0.52600306 0.51617122 0 0 1 4.2333333 1.3115479 z " />
    <path
       style="fill:#000000;fill-opacity:1;stroke:none;stroke-width:0.264583px;stroke-linecap:butt;stroke-linejoin:miter;stroke-opacity:1"
       d="M 4.2333334,5.7836324 2.94063,2.2937136 c 0.8372397,0.4421257 1.695773,0.5009661 2.5854067,0 z"
       id="path1369" />
    <path
       style="fill:none;stroke:#000000;stroke-width:0.465;stroke-linecap:round;stroke-linejoin:round;stroke-dasharray:none;stroke-opacity:1"
       d="M 3.6312331,6.0742412 1.3229167,7.1883694"
       id="path3024" />
    <path
       style="fill:none;stroke:#000000;stroke-width:0.465;stroke-linecap:round;stroke-linejoin:round;stroke-dasharray:none;stroke-opacity:1"
       d="M 4.8354341,6.0742412 7.14375,7.1883694"
       id="path3024-6" />
    <path
       style="fill:none;stroke:#000000;stroke-width:0.465;stroke-linecap:round;stroke-linejoin:round;stroke-dasharray:none;stroke-opacity:1"
       d="m 4.2333336,6.4521968 -1e-7,1.5878027"
       id="path3055" />
  </g>
</svg>
